<svg id="Group_521" data-name="Group 521" xmlns="http://www.w3.org/2000/svg" width="65.53" height="65.53" viewBox="0 0 65.53 65.53">
  <path id="Path_3487" data-name="Path 3487" d="M282,232.99a32.765,32.765,0,1,0-32.763,32.765A32.764,32.764,0,0,0,282,232.99" transform="translate(-216.47 -200.225)" fill="#3d83d9"/>
  <rect id="Rectangle_251" data-name="Rectangle 251" width="7.585" height="21.676" transform="translate(17.165 24.769)" fill="#fff"/>
  <path id="Path_3488" data-name="Path 3488" d="M257.882,230.756a3.8,3.8,0,1,0,3.792,3.793,3.8,3.8,0,0,0-3.792-3.793" transform="translate(-236.924 -216.825)" fill="#fff"/>
  <path id="Path_3489" data-name="Path 3489" d="M300.8,261.169c-.51-4.085-2.554-6.659-8.077-6.659-3.92,0-5.478.612-6.377,2.323V254.51h-6.14v21.676h6.319V264.84c0-2.833.537-4.972,4.039-4.972,3.452,0,3.73,2.634,3.73,5.156v11.163H300.8s.121-14.063,0-15.017" transform="translate(-251.126 -229.741)" fill="#fff"/>
</svg>
