<svg xmlns="http://www.w3.org/2000/svg" width="46" height="46" viewBox="0 0 46 46">
  <g id="Group_7" data-name="Group 7" transform="translate(168 -621)">
    <circle id="Ellipse_2" data-name="Ellipse 2" cx="23" cy="23" r="23" transform="translate(-168 621)" fill="#19938a"/>
    <path id="Icon_ionic-ios-call" data-name="Icon ionic-ios-call" d="M28.425,23.8A20.7,20.7,0,0,0,24.1,20.906c-1.3-.622-1.771-.61-2.688.051-.764.552-1.258,1.065-2.137.873s-2.611-1.5-4.292-3.176-2.99-3.413-3.176-4.292.327-1.373.873-2.137c.661-.918.68-1.392.051-2.688A20.292,20.292,0,0,0,9.837,5.212c-.943-.943-1.155-.738-1.675-.552a9.529,9.529,0,0,0-1.533.815A4.626,4.626,0,0,0,4.788,7.42c-.366.789-.789,2.258,1.367,6.1a34.011,34.011,0,0,0,5.98,7.975h0l.006.006.006.006h0a34.144,34.144,0,0,0,7.975,5.98c3.837,2.156,5.306,1.732,6.1,1.367a4.547,4.547,0,0,0,1.944-1.841,9.529,9.529,0,0,0,.815-1.533C29.163,24.955,29.374,24.743,28.425,23.8Z" transform="translate(-161.813 627.175)" fill="#fff"/>
  </g>
</svg>
