<svg xmlns="http://www.w3.org/2000/svg" width="46" height="46" viewBox="0 0 46 46">
  <g id="Group_10" data-name="Group 10" transform="translate(166 -600)">
    <circle id="Ellipse_2" data-name="Ellipse 2" cx="23" cy="23" r="23" transform="translate(-166 600)" fill="#5ec845"/>
    <path id="Icon_awesome-rupee-sign" data-name="Icon awesome-rupee-sign" d="M17.815,6.136a.712.712,0,0,0,.694-.729V2.979a.712.712,0,0,0-.694-.729H.694A.712.712,0,0,0,0,2.979V5.7a.712.712,0,0,0,.694.729H5.627A4.1,4.1,0,0,1,9.154,8.079H.694A.712.712,0,0,0,0,8.808v2.429a.712.712,0,0,0,.694.729H9.877a4.047,4.047,0,0,1-4.324,3.56H.694A.712.712,0,0,0,0,16.254v3.219a.746.746,0,0,0,.223.535L9.77,29.26a.676.676,0,0,0,.471.193h4.776a.734.734,0,0,0,.471-1.264L6.76,19.732a8.093,8.093,0,0,0,8-7.767h3.055a.712.712,0,0,0,.694-.729V8.808a.712.712,0,0,0-.694-.729H14.421A8.529,8.529,0,0,0,13.6,6.136Z" transform="translate(-152.255 607.148)" fill="#fff"/>
  </g>
</svg>
