<svg id="Group_512" data-name="Group 512" xmlns="http://www.w3.org/2000/svg" width="65.53" height="65.53" viewBox="0 0 65.53 65.53">
  <path id="Path_3490" data-name="Path 3490" d="M499.7,32.765A32.765,32.765,0,1,0,466.941,65.53,32.766,32.766,0,0,0,499.7,32.765" transform="translate(-434.174 0)" fill="#00a9ff"/>
  <path id="Path_3491" data-name="Path 3491" d="M501.87,45.686a16.168,16.168,0,0,1-4.181,1.068,7.878,7.878,0,0,0,3.393-4.027.123.123,0,0,0-.177-.148,16.048,16.048,0,0,1-4.773,1.743,8.005,8.005,0,0,0-5.813-2.475,7.842,7.842,0,0,0-7.755,9.624,22.742,22.742,0,0,1-16.372-8.141.045.045,0,0,0-.073.006,7.762,7.762,0,0,0,2.358,10.314.049.049,0,0,1-.03.089,8.05,8.05,0,0,1-3.373-.938.04.04,0,0,0-.061.036,10.587,10.587,0,0,0,.538,2.868,8.034,8.034,0,0,0,5.85,4.847,8.349,8.349,0,0,1-2.1.277,7.945,7.945,0,0,1-1.428-.133.044.044,0,0,0-.05.058,7.962,7.962,0,0,0,7.28,5.367.048.048,0,0,1,.029.086,16.112,16.112,0,0,1-9.784,3.276,16.571,16.571,0,0,1-1.9-.108,22.807,22.807,0,0,0,12.2,3.52,22.176,22.176,0,0,0,14.917-5.385,23,23,0,0,0,7.2-12.184,21.535,21.535,0,0,0,.545-4.732c0-.337-.009-.677-.026-1.013a16.021,16.021,0,0,0,3.729-3.711.122.122,0,0,0-.147-.183" transform="translate(-450.093 -22.753)" fill="#fff"/>
</svg>
