<svg id="Group_513" data-name="Group 513" xmlns="http://www.w3.org/2000/svg" width="65.529" height="65.529" viewBox="0 0 65.529 65.529">
  <path id="Path_3484" data-name="Path 3484" d="M499.7,232.988a32.764,32.764,0,1,0-32.763,32.767A32.763,32.763,0,0,0,499.7,232.988" transform="translate(-434.175 -200.226)" fill="#d40c18"/>
  <path id="Path_3485" data-name="Path 3485" d="M494.712,269.723H477.964a8.113,8.113,0,0,1-8.113-8.113v-7.955a8.113,8.113,0,0,1,8.113-8.113h16.748a8.114,8.114,0,0,1,8.113,8.113v7.955a8.114,8.114,0,0,1-8.113,8.113" transform="translate(-453.573 -224.865)" fill="#fff"/>
  <path id="Path_3486" data-name="Path 3486" d="M506.574,263.817l-11.012,5.949a.552.552,0,0,1-.814-.485l0-11.945a.552.552,0,0,1,.816-.485l11.016,6a.552.552,0,0,1,0,.97" transform="translate(-467.107 -230.977)" fill="#db0c0b"/>
</svg>
